# xmcd
#
# Track frame offsets: 
#        150
#        13591
#        28939
#        43294
#        56499
#        69727
#        84015
#        96770
#        113683
#        129845
#        143063
#        155845
#        171887
#        185341
#        200689
#        215097
#        229488
#        242279
#        259245
#
# Disc length: 3626 seconds
#
# Revision: 0
# Processed by: cddbd v1.5.2PL0 Copyright (c) Steve Scherf et al.
# Submitted via: ExactAudioCopy v0.95b4
#
DISCID=0e0e2813
DTITLE=배호 - 천상의 가수 배호 전집 (아세아-2006) (10 CD)-10
DYEAR=2006
DGENRE=Country
TTITLE0=누가 울어
TTITLE1=안개속에 가버린 사람
TTITLE2=나그네 목동
TTITLE3=망부석
TTITLE4=먼 하늘
TTITLE5=해당화 피는 마을
TTITLE6=검은 나비
TTITLE7=찾아온 고향
TTITLE8=무정한 님
TTITLE9=순정
TTITLE10=대청도 아가씨
TTITLE11=세세연정
TTITLE12=누가 울어(MR)
TTITLE13=안개속에 가버린 사람(MR)
TTITLE14=나그네 목동(MR)
TTITLE15=해당화 피는 마을(MR)
TTITLE16=검은 나비(MR)
TTITLE17=찾아온 고향(MR)
TTITLE18=대청도 아가씨(MR)
EXTD=
EXTT0=
EXTT1=
EXTT2=
EXTT3=
EXTT4=
EXTT5=
EXTT6=
EXTT7=
EXTT8=
EXTT9=
EXTT10=
EXTT11=
EXTT12=
EXTT13=
EXTT14=
EXTT15=
EXTT16=
EXTT17=
EXTT18=
PLAYORDER=
